<svg width="8" height="9" viewBox="0 0 8 9" fill="none" xmlns="http://www.w3.org/2000/svg">
<path d="M6.63565 0.732849L7.88077 1.88934L6.93158 2.77135L5.68646 1.61486L6.63565 0.732849ZM2.0752 6.12517H3.32032L6.34471 3.31606L5.09959 2.15957L2.0752 4.96868V6.12517Z" fill="#4B332F"/>
<path d="M6.64063 7.28165H2.14077C2.12998 7.28165 2.11878 7.2855 2.10798 7.2855C2.09429 7.2855 2.08059 7.28203 2.06648 7.28165H0.830076V1.8847H3.67185L4.50193 1.11371H0.830076C0.372287 1.11371 -3.8147e-06 1.45911 -3.8147e-06 1.8847V7.28165C-3.8147e-06 7.70724 0.372287 8.05264 0.830076 8.05264H6.64063C6.86079 8.05264 7.07192 7.97141 7.22759 7.82682C7.38326 7.68223 7.47071 7.48613 7.47071 7.28165V3.94017L6.64063 4.71116V7.28165Z" fill="#4B332F"/>
</svg>
